<svg width="380" height="48" viewBox="0 0 380 48" fill="none" xmlns="http://www.w3.org/2000/svg">
<rect y="12" width="380" height="30" fill="#FDF2F8"/>
<path d="M25 42V12H61V18H67V42H55V18H37V42H25ZM79 42V36H73V18H79V12H109V18H115V36H109V42H79ZM85 36H103V18H85V36ZM139 42V18H127V12H139V0H151V12H163V18H151V42H139ZM175 42V36H169V0H181V12H205V18H211V36H205V42H175ZM181 36H199V18H181V36ZM223 42V36H235V6H229V0H247V36H259V42H223ZM271 42V36H265V18H271V12H301V18H307V36H301V42H271ZM277 36H295V18H277V36ZM319 48V42H343V36H319V30H313V18H319V12H355V42H349V48H319ZM325 30H343V18H325V30Z" fill="#BE185D"/>
</svg>
