<svg width="380" height="91" viewBox="0 0 380 91" fill="none" xmlns="http://www.w3.org/2000/svg">
<path d="M119.466 49.6023C119.491 45.1278 122.099 42.4688 126.062 42.4688C130.026 42.4688 132.378 45.0767 132.352 49.4233V72H144.855V46.9688C144.881 38.1222 139.486 32.2159 131.227 32.2159C125.423 32.2159 121.026 35.1562 119.287 39.9375H118.852V32.7273H106.963V72H119.466V49.6023ZM170.928 72.7415C183.278 72.7415 190.769 64.5852 190.769 52.4915C190.769 40.3722 183.278 32.2159 170.928 32.2159C158.579 32.2159 151.087 40.3722 151.087 52.4915C151.087 64.5852 158.579 72.7415 170.928 72.7415ZM171.005 63.3068C166.377 63.3068 163.82 58.9091 163.82 52.4148C163.82 45.8949 166.377 41.4716 171.005 41.4716C175.479 41.4716 178.036 45.8949 178.036 52.4148C178.036 58.9091 175.479 63.3068 171.005 63.3068ZM219.342 32.7273H212.259V23.3182H199.756V32.7273H194.566V41.9318H199.756V61.0312C199.68 68.983 204.844 72.9716 213.665 72.5625C216.683 72.4091 218.856 71.7955 220.058 71.4375L218.165 62.4119C217.629 62.5398 216.376 62.7955 215.43 62.7955C213.41 62.7955 212.259 61.9773 212.259 59.6506V41.9318H219.342V32.7273Z" fill="#F9A8D4"/>
<path d="M225.721 72H238.096V65.6335H238.479C240.065 69.2642 243.593 72.5625 249.525 72.5625C258.218 72.5625 265.224 65.7614 265.224 52.3892C265.224 38.5312 257.809 32.2159 249.602 32.2159C243.388 32.2159 239.988 35.8466 238.479 39.4517H238.224V19.6364H225.721V72ZM237.968 52.3636C237.968 45.946 240.627 41.983 245.204 41.983C249.832 41.983 252.388 46.0483 252.388 52.3636C252.388 58.7045 249.832 62.821 245.204 62.821C240.627 62.821 237.968 58.7301 237.968 52.3636ZM284.278 19.6364H271.776V72H284.278V19.6364ZM310.569 72.7415C322.918 72.7415 330.41 64.5852 330.41 52.4915C330.41 40.3722 322.918 32.2159 310.569 32.2159C298.219 32.2159 290.728 40.3722 290.728 52.4915C290.728 64.5852 298.219 72.7415 310.569 72.7415ZM310.646 63.3068C306.018 63.3068 303.461 58.9091 303.461 52.4148C303.461 45.8949 306.018 41.4716 310.646 41.4716C315.12 41.4716 317.677 45.8949 317.677 52.4148C317.677 58.9091 315.12 63.3068 310.646 63.3068ZM355.121 87.5455C366.96 87.5455 375.039 82.1506 375.039 72.1534V32.7273H362.587V39.4517H362.229C360.721 35.8466 357.295 32.2159 351.107 32.2159C342.9 32.2159 335.46 38.5312 335.46 52.3125C335.46 65.6591 342.542 71.4631 351.158 71.4631C356.937 71.4631 360.798 68.7784 362.281 65.1477H362.715V72.0511C362.715 77.0625 359.647 78.8778 355.454 78.8778C351.44 78.8778 349.036 77.3438 348.371 74.9148L336.533 75.5795C337.454 82.4574 343.923 87.5455 355.121 87.5455ZM355.505 62.3608C350.877 62.3608 348.295 58.6023 348.295 52.3125C348.295 46.0483 350.852 41.983 355.505 41.983C360.082 41.983 362.741 45.946 362.741 52.3125C362.741 58.6278 360.056 62.3608 355.505 62.3608Z" fill="#374151"/>
<circle cx="45.5" cy="45.5" r="45.5" fill="url(#paint0_linear)"/>
<defs>
<linearGradient id="paint0_linear" x1="0" y1="0" x2="91" y2="91" gradientUnits="userSpaceOnUse">
<stop stop-color="#FDF2F8"/>
<stop offset="1" stop-color="#F9A8D4"/>
</linearGradient>
</defs>
</svg>
